<svg xmlns="http://www.w3.org/2000/svg" width="40" height="32" viewBox="0 0 40 32" fill="none">
    <path
        d="M39 22H38V15.2437C38 14.45 37.6813 13.6875 37.1188 13.125L30.875 6.88125C30.3125 6.31875 29.55 6 28.7563 6H26V3C26 1.34375 24.6562 0 23 0H7C5.34375 0 4 1.34375 4 3V6H0.5C0.225 6 0 6.225 0 6.5V7.5C0 7.775 0.225 8 0.5 8H17.5C17.775 8 18 8.225 18 8.5V9.5C18 9.775 17.775 10 17.5 10H2.5C2.225 10 2 10.225 2 10.5V11.5C2 11.775 2.225 12 2.5 12H15.5C15.775 12 16 12.225 16 12.5V13.5C16 13.775 15.775 14 15.5 14H0.5C0.225 14 0 14.225 0 14.5V15.5C0 15.775 0.225 16 0.5 16H13.5C13.775 16 14 16.225 14 16.5V17.5C14 17.775 13.775 18 13.5 18H4V26C4 29.3125 6.6875 32 10 32C13.3125 32 16 29.3125 16 26H24C24 29.3125 26.6875 32 30 32C33.3125 32 36 29.3125 36 26H39C39.55 26 40 25.55 40 25V23C40 22.45 39.55 22 39 22ZM10 29C8.34375 29 7 27.6562 7 26C7 24.3438 8.34375 23 10 23C11.6562 23 13 24.3438 13 26C13 27.6562 11.6562 29 10 29ZM30 29C28.3438 29 27 27.6562 27 26C27 24.3438 28.3438 23 30 23C31.6562 23 33 24.3438 33 26C33 27.6562 31.6562 29 30 29ZM35 16H26V9H28.7563L35 15.2437V16Z"
        fill="#5D5FEF" />
</svg>