<svg width="51" height="48" viewBox="0 0 51 48" fill="none" xmlns="http://www.w3.org/2000/svg">
<path d="M1.05114 39L5.88068 9.90909H16.7898C19.0246 9.90909 20.8333 10.3258 22.2159 11.1591C23.5985 11.983 24.5597 13.1241 25.0994 14.5824C25.6392 16.0312 25.7528 17.6837 25.4403 19.5398C25.1373 21.4053 24.4697 23.0625 23.4375 24.5114C22.4148 25.9602 21.0653 27.1013 19.3892 27.9347C17.7131 28.7585 15.7528 29.1705 13.5085 29.1705H6.27841L7.00284 24.8381H13.5227C14.8295 24.8381 15.9375 24.6108 16.8466 24.1562C17.7652 23.7017 18.4896 23.0767 19.0199 22.2812C19.5502 21.4858 19.9006 20.572 20.071 19.5398C20.232 18.5076 20.1799 17.5985 19.9148 16.8125C19.6496 16.0265 19.1335 15.4157 18.3665 14.9801C17.6089 14.535 16.572 14.3125 15.2557 14.3125H10.4261L6.32102 39H1.05114ZM26.7543 39L31.5838 9.90909H50.5043L49.7656 14.3267H36.1151L34.8082 22.2244H47.4787L46.7401 26.642H34.0696L32.7628 34.5824H46.527L45.7884 39H26.7543Z" fill="#4338CA"/>
<line x1="30" y1="27.5" x2="36" y2="27.5" stroke="#4338CA"/>
<path d="M0 24H49" stroke="white" stroke-width="2"/>
<path d="M2 27C20.3667 27 30.3237 27 48 27" stroke="white" stroke-width="2"/>
<line x1="1" y1="31" x2="47" y2="31" stroke="white" stroke-width="2"/>
<line x1="2" y1="21" x2="50" y2="21" stroke="white" stroke-width="2"/>
<line x1="4" y1="18" x2="49" y2="18" stroke="white" stroke-width="2"/>
<path d="M0 16C11.4071 16 8.61918 16 10 16" stroke="#4338CA" stroke-width="2"/>
<path d="M2 19.5L9 19.5" stroke="#4338CA"/>
<line x1="4" y1="22.5" x2="9" y2="22.5" stroke="#4338CA"/>
<line x1="2" y1="25.5" x2="7" y2="25.5" stroke="#4338CA"/>
<path d="M0 29L7 29" stroke="#4338CA" stroke-width="2"/>
</svg>
